<svg width="1047" height="383" viewBox="0 0 1047 383" fill="none" xmlns="http://www.w3.org/2000/svg">
<g clip-path="url(#clip0_60_2)">
<path d="M14.4883 326.953V150.195H45.0059V191.699C48.2611 190.56 52.6556 189.99 58.1895 189.99V220.02C52.4928 220.02 48.3424 222.624 45.7383 227.832C45.4128 228.483 45.25 228.971 45.25 229.297V326.953H14.4883ZM70.1523 220.02V189.99C85.9401 189.99 97.8216 195.605 105.797 206.836C110.191 212.858 112.389 219.531 112.389 226.855V326.953H81.8711V229.297C81.8711 227.018 80.569 224.821 77.9648 222.705C75.849 220.915 73.2448 220.02 70.1523 220.02ZM125.816 292.773V280.322C125.979 269.906 130.374 261.849 139 256.152C141.116 255.013 149.661 251.839 164.635 246.631C182.05 240.771 190.758 235.563 190.758 231.006V225.391C190.595 219.531 187.014 216.357 180.016 215.869V185.84C192.223 185.84 202.477 189.99 210.777 198.291C218.264 205.941 222.008 214.242 222.008 223.193V286.914C222.171 291.797 224.449 294.401 228.844 294.727V325C218.915 325 210.94 322.396 204.918 317.188C198.57 322.233 190.351 324.837 180.26 325V294.971C181.562 294.971 182.783 294.808 183.922 294.482C188.479 293.18 190.758 290.088 190.758 285.205V265.186C186.363 267.79 177.818 270.882 165.123 274.463C159.915 275.765 156.904 276.66 156.09 277.148C154.137 278.125 153.079 279.997 152.916 282.764V286.182C152.916 287.158 152.997 288.135 153.16 289.111C154.137 293.018 158.775 294.971 167.076 294.971V325C156.171 325 146.894 322.233 139.244 316.699C130.292 310.189 125.816 302.214 125.816 292.773ZM127.525 220.752C127.688 212.451 131.106 204.883 137.779 198.047C146.243 189.909 156.09 185.84 167.32 185.84V215.869C159.833 216.032 156.008 221.24 155.846 231.494L127.525 220.752ZM245.201 325V185.84H278.404V201.221C284.101 193.896 291.832 188.851 301.598 186.084C305.016 185.107 308.434 184.619 311.852 184.619H320.641L313.072 217.334C302.818 217.497 293.948 221.973 286.461 230.762C281.09 237.109 278.404 243.701 278.404 250.537V325H245.201ZM333.336 325V185.84H366.539V201.221C372.236 193.896 379.967 188.851 389.732 186.084C393.15 185.107 396.568 184.619 399.986 184.619H408.775L401.207 217.334C390.953 217.497 382.083 221.973 374.596 230.762C369.225 237.109 366.539 243.701 366.539 250.537V325H333.336ZM412.926 185.84H448.082L480.553 294.238L453.941 373.828H420.25L444.664 293.75L412.926 185.84ZM470.055 218.555L480.309 185.84H515.465L487.877 268.359H484.703L470.055 218.555Z" fill="url(#paint0_linear_60_2)"/>
<path d="M523.277 287.158V223.682C523.44 216.032 526.777 208.382 533.287 200.732C541.425 191.455 551.516 186.735 563.561 186.572H571.617V218.066H563.561C558.84 218.555 555.992 220.833 555.016 224.902V286.67C555.016 288.46 556.155 290.169 558.434 291.797C560.061 292.773 561.933 293.262 564.049 293.262H571.617V325H564.049C549.238 325 537.682 318.408 529.381 305.225C525.312 298.714 523.277 292.692 523.277 287.158ZM584.557 325V150.195H618.492L618.248 325H584.557ZM637.779 287.158V223.193C637.942 215.218 641.604 207.406 648.766 199.756C657.555 190.641 668.297 186.003 680.992 185.84V216.602C676.272 216.602 673.017 218.636 671.227 222.705C670.738 223.682 670.494 224.577 670.494 225.391V237.598H706.871V225.635C706.708 219.613 702.477 216.602 694.176 216.602V185.84C706.057 185.84 716.474 189.909 725.426 198.047C733.238 205.208 737.226 213.509 737.389 222.949V269.092H670.494V287.158C671.633 291.878 675.214 294.482 681.236 294.971V325C665.937 325 653.811 318.734 644.859 306.201C640.139 299.528 637.779 293.18 637.779 287.158ZM694.176 325V295.215C702.965 295.052 708.58 290.902 711.021 282.764L737.633 292.773C735.191 303.19 729.007 311.572 719.078 317.92C711.428 322.64 703.128 325 694.176 325Z" fill="white"/>
<path d="M757.164 326.953V150.195H787.682V191.699C790.937 190.56 795.331 189.99 800.865 189.99V220.02C795.169 220.02 791.018 222.624 788.414 227.832C788.089 228.483 787.926 228.971 787.926 229.297V326.953H757.164ZM812.828 220.02V189.99C828.616 189.99 840.497 195.605 848.473 206.836C852.867 212.858 855.064 219.531 855.064 226.855V326.953H824.547V229.297C824.547 227.018 823.245 224.821 820.641 222.705C818.525 220.915 815.921 220.02 812.828 220.02ZM874.596 166.064C874.596 159.391 877.607 154.346 883.629 150.928C886.396 149.3 889.326 148.486 892.418 148.486C899.254 148.486 904.381 151.497 907.799 157.52C909.264 160.286 909.996 163.135 909.996 166.064C909.996 172.9 906.985 178.027 900.963 181.445C898.196 182.91 895.348 183.643 892.418 183.643C885.419 183.643 880.211 180.55 876.793 174.365C875.328 171.761 874.596 168.994 874.596 166.064ZM876.305 325V193.164H909.02V325H876.305ZM924.156 325L954.674 254.688L924.645 185.84H958.336L972.984 217.822L987.145 185.84H1021.08L991.539 254.688L1021.81 325H988.365L972.984 291.064L957.604 325H924.156Z" fill="url(#paint1_linear_60_2)"/>
<path d="M27.456 96.96C23.104 96.96 19.168 95.936 15.648 93.888C12.192 91.776 9.44 88.96 7.392 85.44C5.344 81.856 4.32 77.888 4.32 73.536C4.32 69.184 5.344 65.28 7.392 61.824C9.44 58.304 12.192 55.52 15.648 53.472C19.168 51.424 23.104 50.4 27.456 50.4C30.72 50.4 33.792 51.008 36.672 52.224C39.552 53.44 42.016 55.168 44.064 57.408L40.8 60.672C39.136 58.88 37.152 57.504 34.848 56.544C32.608 55.52 30.144 55.008 27.456 55.008C24 55.008 20.896 55.84 18.144 57.504C15.456 59.104 13.312 61.28 11.712 64.032C10.112 66.784 9.312 69.952 9.312 73.536C9.312 77.12 10.112 80.32 11.712 83.136C13.312 85.952 15.456 88.192 18.144 89.856C20.896 91.52 24 92.352 27.456 92.352C30.144 92.352 32.64 91.872 34.944 90.912C37.312 89.888 39.328 88.448 40.992 86.592L44.256 89.856C42.144 92.096 39.616 93.856 36.672 95.136C33.792 96.352 30.72 96.96 27.456 96.96ZM54.5438 96V51.36H59.4398V96H54.5438ZM59.4398 69.312L57.0398 68.448C57.0398 62.752 58.4798 58.336 61.3598 55.2C64.2398 52 68.0158 50.4 72.6877 50.4C74.8638 50.4 76.8798 50.784 78.7358 51.552C80.6558 52.32 82.4158 53.568 84.0158 55.296L80.7518 58.752C79.5358 57.408 78.2238 56.448 76.8158 55.872C75.4078 55.296 73.7438 55.008 71.8238 55.008C68.1758 55.008 65.1998 56.256 62.8958 58.752C60.5918 61.184 59.4398 64.704 59.4398 69.312ZM110.9 96.96C106.484 96.96 102.484 95.936 98.9003 93.888C95.3803 91.84 92.5963 89.056 90.5483 85.536C88.5003 82.016 87.4763 78.048 87.4763 73.632C87.4763 69.216 88.4683 65.28 90.4523 61.824C92.4363 58.304 95.1563 55.52 98.6123 53.472C102.132 51.424 106.036 50.4 110.324 50.4C114.42 50.4 118.004 51.328 121.076 53.184C124.212 54.976 126.644 57.472 128.372 60.672C130.164 63.872 131.06 67.552 131.06 71.712C131.06 72.096 131.028 72.608 130.964 73.248C130.9 73.824 130.804 74.56 130.676 75.456H90.9323V71.232H127.892L126.26 72.576C126.388 69.056 125.812 65.984 124.532 63.36C123.252 60.672 121.396 58.592 118.964 57.12C116.532 55.648 113.62 54.912 110.228 54.912C106.708 54.912 103.604 55.712 100.916 57.312C98.2283 58.848 96.1163 60.992 94.5803 63.744C93.1083 66.496 92.3723 69.696 92.3723 73.344C92.3723 77.184 93.1403 80.544 94.6763 83.424C96.2763 86.24 98.4843 88.448 101.3 90.048C104.116 91.584 107.412 92.352 111.188 92.352C114.068 92.352 116.724 91.84 119.156 90.816C121.652 89.728 123.732 88.128 125.396 86.016L128.66 89.184C126.612 91.616 124.02 93.536 120.884 94.944C117.812 96.288 114.484 96.96 110.9 96.96ZM161.976 96.96C157.688 96.96 153.816 95.936 150.36 93.888C146.968 91.84 144.28 89.088 142.296 85.632C140.312 82.112 139.32 78.144 139.32 73.728C139.32 69.376 140.312 65.44 142.296 61.92C144.28 58.4 146.968 55.616 150.36 53.568C153.752 51.456 157.56 50.4 161.784 50.4C165.24 50.4 168.312 51.072 171 52.416C173.752 53.696 175.992 55.52 177.72 57.888C179.512 60.256 180.664 63.072 181.176 66.336V80.928C180.6 84.192 179.416 87.04 177.624 89.472C175.896 91.84 173.688 93.696 171 95.04C168.376 96.32 165.368 96.96 161.976 96.96ZM162.648 92.352C167.768 92.352 171.832 90.656 174.84 87.264C177.912 83.808 179.448 79.296 179.448 73.728C179.448 69.952 178.744 66.688 177.336 63.936C175.992 61.12 174.04 58.944 171.48 57.408C168.92 55.808 165.944 55.008 162.552 55.008C159.032 55.008 155.896 55.808 153.144 57.408C150.456 59.008 148.312 61.216 146.712 64.032C145.176 66.848 144.408 70.048 144.408 73.632C144.408 77.28 145.176 80.512 146.712 83.328C148.312 86.144 150.488 88.352 153.24 89.952C155.992 91.552 159.128 92.352 162.648 92.352ZM179.256 96V84L180.312 73.056L179.256 62.208V51.36H184.152V96H179.256ZM204.989 96V32.448H209.885V96H204.989ZM193.469 55.68V51.36H221.405V55.68H193.469ZM250.119 96.96C245.703 96.96 241.703 95.936 238.119 93.888C234.599 91.84 231.815 89.056 229.767 85.536C227.719 82.016 226.695 78.048 226.695 73.632C226.695 69.216 227.687 65.28 229.671 61.824C231.655 58.304 234.375 55.52 237.831 53.472C241.351 51.424 245.255 50.4 249.543 50.4C253.639 50.4 257.223 51.328 260.295 53.184C263.431 54.976 265.863 57.472 267.591 60.672C269.383 63.872 270.279 67.552 270.279 71.712C270.279 72.096 270.247 72.608 270.183 73.248C270.119 73.824 270.023 74.56 269.895 75.456H230.151V71.232H267.111L265.479 72.576C265.607 69.056 265.031 65.984 263.751 63.36C262.471 60.672 260.615 58.592 258.183 57.12C255.751 55.648 252.839 54.912 249.447 54.912C245.927 54.912 242.823 55.712 240.135 57.312C237.447 58.848 235.335 60.992 233.799 63.744C232.327 66.496 231.591 69.696 231.591 73.344C231.591 77.184 232.359 80.544 233.895 83.424C235.495 86.24 237.703 88.448 240.519 90.048C243.335 91.584 246.631 92.352 250.407 92.352C253.287 92.352 255.943 91.84 258.375 90.816C260.871 89.728 262.951 88.128 264.615 86.016L267.879 89.184C265.831 91.616 263.239 93.536 260.103 94.944C257.031 96.288 253.703 96.96 250.119 96.96ZM300.715 96.96C296.491 96.96 292.715 95.936 289.387 93.888C286.059 91.84 283.435 89.088 281.515 85.632C279.595 82.112 278.635 78.144 278.635 73.728C278.635 69.312 279.595 65.344 281.515 61.824C283.435 58.304 286.059 55.52 289.387 53.472C292.715 51.424 296.491 50.4 300.715 50.4C303.979 50.4 306.987 51.04 309.739 52.32C312.555 53.6 314.923 55.456 316.843 57.888C318.763 60.256 319.979 63.072 320.491 66.336V80.928C319.915 84.128 318.699 86.944 316.843 89.376C314.987 91.744 312.651 93.6 309.835 94.944C307.083 96.288 304.043 96.96 300.715 96.96ZM301.579 92.352C304.971 92.352 307.947 91.552 310.507 89.952C313.067 88.352 315.051 86.176 316.459 83.424C317.931 80.608 318.667 77.376 318.667 73.728C318.667 70.016 317.931 66.784 316.459 64.032C314.987 61.216 312.939 59.008 310.315 57.408C307.755 55.808 304.747 55.008 301.291 55.008C297.899 55.008 294.859 55.808 292.171 57.408C289.547 59.008 287.467 61.216 285.931 64.032C284.395 66.784 283.627 69.984 283.627 73.632C283.627 77.28 284.395 80.512 285.931 83.328C287.467 86.144 289.579 88.352 292.267 89.952C294.955 91.552 298.059 92.352 301.579 92.352ZM323.371 96H318.475V84L319.627 73.056L318.475 62.208V28.608H323.371V96ZM381.794 96.96C378.466 96.96 375.394 96.288 372.578 94.944C369.826 93.6 367.522 91.744 365.666 89.376C363.81 86.944 362.594 84.128 362.018 80.928V66.336C362.594 63.072 363.81 60.256 365.666 57.888C367.586 55.456 369.922 53.6 372.674 52.32C375.49 51.04 378.53 50.4 381.794 50.4C386.018 50.4 389.794 51.424 393.122 53.472C396.45 55.52 399.074 58.304 400.994 61.824C402.914 65.344 403.874 69.312 403.874 73.728C403.874 78.144 402.914 82.112 400.994 85.632C399.074 89.088 396.45 91.84 393.122 93.888C389.794 95.936 386.018 96.96 381.794 96.96ZM359.138 96V28.608H364.034V62.208L362.882 73.056L364.034 84V96H359.138ZM380.93 92.352C384.45 92.352 387.554 91.552 390.242 89.952C392.93 88.352 395.042 86.144 396.578 83.328C398.114 80.512 398.882 77.28 398.882 73.632C398.882 69.984 398.114 66.752 396.578 63.936C395.042 61.12 392.93 58.944 390.242 57.408C387.618 55.808 384.61 55.008 381.218 55.008C377.762 55.008 374.722 55.808 372.098 57.408C369.538 58.944 367.522 61.12 366.049 63.936C364.578 66.752 363.842 70.016 363.842 73.728C363.842 77.376 364.546 80.608 365.954 83.424C367.426 86.176 369.442 88.352 372.002 89.952C374.626 91.552 377.602 92.352 380.93 92.352ZM428.589 96.096L408.717 51.36H414.093L431.277 91.008H428.781L446.733 51.36H452.109L431.085 96.096H428.589ZM416.973 114.912L428.493 91.296L431.085 96.096L422.253 114.912H416.973Z" fill="white" fill-opacity="0.33"/>
</g>
<defs>
<linearGradient id="paint0_linear_60_2" x1="-488" y1="255.5" x2="1516" y2="255.5" gradientUnits="userSpaceOnUse">
<stop stop-color="#FF0004"/>
<stop offset="1" stop-color="#008CFF"/>
</linearGradient>
<linearGradient id="paint1_linear_60_2" x1="-488" y1="255.5" x2="1516" y2="255.5" gradientUnits="userSpaceOnUse">
<stop stop-color="#4BBAFF"/>
<stop offset="1" stop-color="#FF0105"/>
</linearGradient>
<clipPath id="clip0_60_2">
<rect width="1047" height="383" fill="white"/>
</clipPath>
</defs>
</svg>
